<svg version="1.1" id="Layer_1" xmlns="http://www.w3.org/2000/svg" xmlns:xlink="http://www.w3.org/1999/xlink" x="0px" y="0px"
	 width="100%" viewBox="0 0 2187 659" enable-background="new 0 0 2187 659" xml:space="preserve">
<path fill="#000000" opacity="1.000000" stroke="none" 
	d="
M1691.000000,660.000000 
	C1127.333374,660.000000 564.166687,660.000000 1.000000,660.000000 
	C1.000000,440.333344 1.000000,220.666672 1.000000,1.000000 
	C730.000000,1.000000 1459.000000,1.000000 2188.000000,1.000000 
	C2188.000000,220.666672 2188.000000,440.333344 2188.000000,660.000000 
	C2022.500000,660.000000 1857.000000,660.000000 1691.000000,660.000000 
M484.500000,19.000000 
	C417.171997,19.000023 349.843903,19.029097 282.516083,18.920298 
	C278.881378,18.914425 276.270691,19.833002 273.846375,22.552032 
	C268.550323,28.491932 262.991547,34.198257 257.518463,39.979523 
	C245.427017,52.751896 233.313049,65.502960 221.225479,78.278999 
	C209.939301,90.208031 198.687531,102.169647 187.398361,114.095848 
	C175.078552,127.110863 162.773239,140.139999 150.386292,153.090958 
	C140.392548,163.539734 130.262405,173.857910 120.240089,184.279526 
	C114.375534,190.377747 108.580185,196.543198 102.813751,202.734344 
	C101.870926,203.746613 101.239540,205.048965 100.300232,206.464371 
	C107.280052,207.005859 113.646172,207.719345 120.029724,207.949463 
	C133.466827,208.433868 146.918243,208.538208 160.351990,209.087006 
	C163.795761,209.227692 165.934311,207.821518 168.024734,205.501495 
	C174.892792,197.879166 181.765427,190.258560 188.770081,182.762299 
	C199.981903,170.763641 211.296951,158.861374 222.575775,146.925369 
	C234.197815,134.626160 245.780746,122.289490 257.470337,110.054756 
	C267.573639,99.480278 277.884216,89.103302 287.947784,78.491631 
	C294.891907,71.169327 301.609070,63.629910 308.357178,56.124172 
	C314.185303,49.641720 314.140381,49.604748 322.721466,52.887787 
	C324.097565,53.414265 325.547028,53.784466 326.860779,54.433071 
	C352.121216,66.903969 377.354950,79.428978 402.618011,91.894531 
	C428.027496,104.432343 453.472198,116.898735 478.884613,129.430557 
	C504.889008,142.254288 530.866577,155.132492 556.867676,167.962738 
	C581.538696,180.136642 606.235901,192.257507 630.902100,204.441025 
	C665.025940,221.295914 699.126831,238.197021 733.246704,255.059921 
	C752.000977,264.328766 770.794495,273.518616 789.498230,282.888092 
	C790.954895,283.617798 792.738953,285.417938 792.845703,286.835419 
	C793.479858,295.255859 793.775818,303.707489 793.976746,312.153625 
	C794.395447,329.760468 794.680359,347.370453 795.041260,364.978760 
	C795.053528,365.576385 795.290833,366.169434 795.694763,367.984772 
	C859.236572,323.090637 922.182251,278.617676 985.424316,233.935349 
	C964.673035,223.338913 944.596741,213.056396 924.492676,202.828583 
	C896.441650,188.557785 868.385986,174.295853 840.302368,160.089325 
	C811.782166,145.662003 783.210083,131.337326 754.689392,116.910988 
	C726.605530,102.705627 698.582520,88.380035 670.487793,74.196289 
	C635.186340,56.374172 599.853149,38.614769 564.479065,20.937477 
	C562.224243,19.810686 559.502625,19.096636 556.992981,19.082144 
	C533.162598,18.944551 509.331146,19.000051 484.500000,19.000000 
M1656.500000,642.000000 
	C1706.197754,642.000000 1755.895508,642.000000 1805.593262,642.000000 
	C1804.915161,640.676819 1804.126587,640.170044 1803.296143,639.744507 
	C1789.081177,632.459900 1774.883057,625.142212 1760.637939,617.916992 
	C1725.216797,599.951294 1689.791870,581.992615 1654.334473,564.098755 
	C1618.440552,545.984741 1582.488525,527.986389 1546.593872,509.874054 
	C1511.135498,491.981750 1475.733398,473.977966 1440.276489,456.082825 
	C1404.382935,437.967163 1368.436157,419.957062 1332.542603,401.841064 
	C1297.821777,384.317047 1263.163208,366.669891 1228.434204,349.162109 
	C1181.933960,325.720093 1135.376953,302.390137 1088.905640,278.890991 
	C1086.095459,277.469971 1084.065552,277.422272 1081.470581,279.156586 
	C1054.443848,297.220795 1027.372070,315.217682 1000.284119,333.190063 
	C956.102295,362.503845 911.892212,391.775208 867.711426,421.090485 
	C860.303894,426.005615 852.983704,431.052338 845.623230,436.038269 
	C845.741089,436.358856 845.858948,436.679413 845.976807,437.000000 
	C847.761414,437.000000 849.546021,437.000000 851.330627,437.000000 
	C900.662659,437.000000 949.996704,436.767151 999.324768,437.211975 
	C1008.339417,437.293243 1015.723145,434.992432 1022.596985,429.738617 
	C1023.901367,428.741699 1025.186890,427.713989 1026.542969,426.791473 
	C1044.186401,414.788666 1061.963257,402.975037 1079.385010,390.659119 
	C1082.679321,388.330170 1084.701538,388.259857 1088.041870,389.930969 
	C1121.493652,406.666382 1155.028442,423.235657 1188.537964,439.855774 
	C1234.303101,462.554474 1280.068481,485.252655 1325.830200,507.958405 
	C1372.182861,530.957397 1418.550293,553.927124 1464.875854,576.980713 
	C1506.493042,597.691284 1548.035034,618.552979 1589.702637,639.161133 
	C1593.104736,640.843750 1597.207275,641.817932 1601.003418,641.875793 
	C1619.165283,642.152649 1637.333862,642.000000 1656.500000,642.000000 
M1214.365845,258.094849 
	C1256.267212,278.910767 1298.164917,299.734314 1340.071045,320.540527 
	C1387.001465,343.841187 1433.943481,367.118652 1480.873535,390.419983 
	C1529.280273,414.454529 1577.675049,438.512939 1626.081909,462.547424 
	C1673.011841,485.848663 1719.954224,509.125153 1766.884155,532.426453 
	C1815.290649,556.460815 1863.694458,580.500122 1912.087769,604.560913 
	C1935.849243,616.374878 1959.560913,628.289856 1983.367188,640.012329 
	C1985.769653,641.195312 1988.671387,641.913269 1991.343262,641.918518 
	C2046.166626,642.026794 2100.990234,642.000000 2155.813721,642.000000 
	C2157.403076,642.000000 2158.992432,642.000000 2160.581787,642.000000 
	C2159.448975,640.391357 2158.086670,639.623108 2156.688232,638.928101 
	C2106.373779,613.924622 2056.049316,588.941284 2005.740112,563.927185 
	C1939.341797,530.913391 1872.949951,497.886963 1806.564941,464.846283 
	C1739.735962,431.584656 1672.927124,398.282379 1606.094482,365.028137 
	C1534.246704,329.278473 1462.360229,293.606384 1390.530762,257.819885 
	C1338.453491,231.874268 1286.421021,205.838257 1234.443481,179.693893 
	C1230.711060,177.816498 1227.906616,177.737595 1224.492798,180.148743 
	C1215.376953,186.587204 1206.101562,192.801422 1196.840942,199.032532 
	C1182.587524,208.623047 1168.293701,218.153229 1153.259766,228.215851 
	C1173.861084,238.346268 1193.749146,248.125992 1214.365845,258.094849 
M887.500000,19.000000 
	C836.635254,19.000000 785.770508,19.000000 734.905701,19.000000 
	C735.915771,20.777220 737.123718,21.472252 738.372192,22.084829 
	C748.420227,27.015099 758.498901,31.883497 768.525330,36.857185 
	C816.204651,60.508877 863.878662,84.171478 911.537659,107.864159 
	C935.447998,119.750671 959.299805,131.755020 983.219238,143.623199 
	C1007.567749,155.704330 1031.977783,167.661530 1056.328857,179.737488 
	C1059.147705,181.135376 1061.027710,180.951324 1063.843872,178.913223 
	C1081.254761,166.312378 1098.968628,154.130585 1116.542969,141.754456 
	C1122.026611,137.892731 1127.389771,133.859879 1133.117310,129.679657 
	C1131.617065,128.919907 1130.621826,128.407730 1129.619507,127.909508 
	C1089.637207,108.033897 1049.644531,88.179016 1009.674805,68.278152 
	C983.705811,55.348270 957.499939,42.856922 931.927734,29.182512 
	C918.095886,21.786118 904.252197,16.987339 887.500000,19.000000 
M172.000000,623.498291 
	C172.000000,629.248291 172.000000,634.998230 172.000000,640.662476 
	C176.407562,640.662476 179.993210,640.662476 184.167084,640.662476 
	C184.167084,625.512878 184.167084,610.689880 184.167084,595.866882 
	C186.458344,597.840271 187.786377,600.020996 189.054550,602.235962 
	C195.902939,614.197083 202.694946,626.190857 209.637695,638.096863 
	C210.350922,639.319946 211.879593,640.761414 213.124237,640.855652 
	C217.548233,641.190674 222.013077,640.986450 226.641388,640.986450 
	C226.641388,619.087646 226.641388,597.734436 226.641388,576.284912 
	C222.697037,576.284912 219.114258,576.284912 214.709747,576.284912 
	C214.709747,591.284241 214.709747,606.017822 214.709747,620.751343 
	C205.737381,607.085266 197.850250,593.309265 189.840149,579.605103 
	C189.015701,578.194580 187.539703,576.316711 186.223969,576.195312 
	C181.661530,575.774231 177.036392,576.032837 172.000000,576.032837 
	C172.000000,591.937988 172.000000,607.218567 172.000000,623.498291 
M534.002747,579.737366 
	C534.002747,599.991760 534.002747,620.246155 534.002747,640.596436 
	C538.304382,640.596436 542.000916,640.596436 546.323669,640.596436 
	C546.323669,625.220398 546.323669,610.239746 546.323669,594.954773 
	C547.239258,595.415405 547.649170,595.480591 547.775146,595.705139 
	C555.563660,609.589966 563.280273,623.515625 571.166504,637.344543 
	C572.020386,638.841858 573.750854,640.665710 575.234375,640.822021 
	C579.625183,641.284485 584.096008,640.987366 588.608032,640.987366 
	C588.608032,619.015198 588.608032,597.662537 588.608032,576.319336 
	C584.628113,576.319336 581.043823,576.319336 576.931030,576.319336 
	C576.931030,591.292969 576.931030,605.957642 576.931030,620.622375 
	C574.987915,619.228821 573.959351,617.617737 572.998718,615.967102 
	C565.738708,603.493042 558.541138,590.982239 551.205750,578.552734 
	C549.430359,575.544556 536.459412,574.723511 534.179626,577.322571 
	C533.913696,577.625793 534.057922,578.288818 534.002747,579.737366 
M1389.987427,639.922913 
	C1401.803223,635.164490 1408.313232,626.049316 1409.781982,613.789917 
	C1411.116089,602.655334 1409.224365,592.106567 1400.397339,583.817322 
	C1395.161621,578.900696 1388.883789,576.835205 1382.048584,576.589966 
	C1372.836792,576.259460 1363.604370,576.507935 1354.276611,576.507935 
	C1354.276611,597.966980 1354.276611,619.203369 1354.276611,639.990967 
	C1366.093506,639.990967 1377.626221,639.990967 1389.987427,639.922913 
M905.989502,616.071350 
	C911.543640,618.880493 911.040283,623.997253 911.018860,629.010803 
	C910.963013,642.081421 911.000366,642.082275 923.898315,640.783264 
	C924.052002,640.767761 924.194092,640.635986 924.416443,640.519165 
	C922.383179,630.044312 927.912109,617.898499 917.216492,609.439026 
	C923.876343,604.603516 926.569824,598.117188 924.885986,590.233276 
	C923.357666,583.077393 918.513000,578.246277 911.519836,577.460876 
	C899.922119,576.158447 888.188293,576.068848 876.414673,575.463257 
	C876.414673,598.006287 876.414673,619.368835 876.414673,640.654968 
	C880.752075,640.654968 884.670654,640.654968 889.060425,640.654968 
	C889.060425,632.064392 889.060425,623.810303 889.060425,614.602417 
	C894.787354,615.086304 899.976624,615.524719 905.989502,616.071350 
M126.558357,575.039246 
	C120.946671,576.627991 114.750366,577.190369 109.830139,579.992981 
	C93.423409,589.338501 91.430534,613.590881 99.862206,628.206482 
	C106.228500,639.242004 116.465767,642.449463 128.892853,642.228027 
	C138.388977,642.058899 151.892792,634.246643 155.078934,623.159668 
	C156.941483,616.678650 157.658279,610.264221 157.142807,603.445190 
	C156.210709,591.114929 148.819870,580.694397 137.004837,576.985657 
	C133.914001,576.015442 130.626862,575.670715 126.558357,575.039246 
M1103.002686,579.736633 
	C1103.002686,599.997070 1103.002686,620.257446 1103.002686,640.978394 
	C1117.738525,640.978394 1131.855347,641.020935 1145.970459,640.886475 
	C1146.953125,640.877197 1148.552612,639.712830 1148.780762,638.811157 
	C1149.453979,636.151733 1149.581787,633.354309 1150.001099,629.983276 
	C1138.618652,629.983276 1127.548950,629.983276 1116.412598,629.983276 
	C1116.412598,624.009155 1116.412598,618.643005 1116.412598,612.812378 
	C1126.740234,612.812378 1136.663208,612.812378 1146.559692,612.812378 
	C1146.559692,608.959900 1146.559692,605.595886 1146.559692,601.759644 
	C1136.205811,601.759644 1126.287842,601.759644 1116.289795,601.759644 
	C1116.289795,596.692017 1116.289795,592.109924 1116.289795,586.881348 
	C1126.943237,586.881348 1137.322510,586.881348 1147.685547,586.881348 
	C1147.685547,582.972961 1147.685547,579.720459 1147.685547,576.022827 
	C1133.424072,576.022827 1119.472168,575.974731 1105.522827,576.140930 
	C1104.675537,576.151001 1103.848511,577.863403 1103.002686,579.736633 
M1162.000854,591.801514 
	C1161.998291,603.145386 1165.033569,607.401855 1175.818359,611.032227 
	C1180.775757,612.700989 1185.722900,614.423340 1190.752319,615.846863 
	C1195.314087,617.138184 1198.073608,620.198181 1197.770264,624.616516 
	C1197.467529,629.025940 1193.768066,631.191101 1189.573120,631.927856 
	C1181.470581,633.350952 1175.438232,629.917786 1172.374634,622.272095 
	C1168.152100,622.272095 1163.921875,622.272095 1159.799072,622.272095 
	C1159.676392,628.397705 1162.220947,633.268860 1166.588501,636.726013 
	C1175.214355,643.553589 1185.349243,642.878906 1195.376953,641.109253 
	C1198.334595,640.587219 1201.397827,639.266785 1203.851318,637.522644 
	C1215.100708,629.525024 1213.969360,609.235718 1197.696533,604.823425 
	C1191.563477,603.160522 1185.577881,600.929199 1179.580688,598.800293 
	C1176.488892,597.702881 1174.024292,595.128967 1175.320435,592.074036 
	C1176.368896,589.602966 1179.222656,586.824707 1181.746094,586.250916 
	C1189.793457,584.421265 1193.485962,586.890198 1196.567993,594.588440 
	C1200.676514,594.588440 1204.727295,594.588440 1209.035034,594.588440 
	C1208.972290,588.179016 1206.957397,583.144409 1201.734741,579.974670 
	C1192.292480,574.243774 1182.264038,573.940918 1172.213013,578.026428 
	C1166.584595,580.314331 1162.798462,584.563904 1162.000854,591.801514 
M269.583801,575.994263 
	C265.712067,576.002136 261.742310,575.463379 257.989746,576.135986 
	C251.030075,577.383606 244.820053,580.013306 242.568970,587.854309 
	C240.290741,595.789734 241.867493,603.009399 248.455338,607.682312 
	C252.074036,610.249084 256.746643,611.377197 261.012146,612.971680 
	C265.134216,614.512573 269.492279,615.493469 273.477936,617.310059 
	C278.671936,619.677124 278.310913,628.418701 273.791138,630.516235 
	C267.675995,633.354187 257.597961,633.237793 253.454498,625.073975 
	C252.814209,623.812439 251.313644,622.298950 250.071808,622.161743 
	C246.513596,621.768799 242.883865,622.023376 238.943756,622.023376 
	C240.467148,630.091370 243.356323,636.479248 250.939651,639.421143 
	C261.915955,643.679382 272.962250,643.768738 283.238922,637.755249 
	C289.228180,634.250488 291.537079,627.960327 290.916626,621.098145 
	C290.364685,614.993408 288.273834,609.466736 281.863342,606.984924 
	C277.298248,605.217590 272.688995,603.560425 268.070404,601.936768 
	C264.992065,600.854553 261.735840,600.193298 258.791473,598.838806 
	C255.851730,597.486450 253.848145,594.691528 255.219315,591.567749 
	C256.193146,589.349121 258.550415,586.755188 260.745514,586.229309 
	C269.168030,584.211426 273.443878,586.788330 276.642975,594.772095 
	C280.567841,594.772095 284.519440,594.772095 288.396881,594.772095 
	C290.918671,586.653259 280.279114,576.179443 269.583801,575.994263 
M759.065613,636.516174 
	C766.798401,642.789673 776.003174,642.504395 785.063416,641.882324 
	C793.882751,641.276855 801.337341,635.442200 803.008606,628.816284 
	C806.154846,616.342590 801.912537,608.482239 789.708069,604.354309 
	C783.980774,602.417236 778.003662,601.061951 772.550415,598.551147 
	C770.452881,597.585449 767.915222,593.699768 768.408142,591.934998 
	C769.069885,589.565796 772.217224,586.812317 774.750732,586.243835 
	C782.803528,584.437012 786.458679,586.875671 789.655823,594.752869 
	C793.591797,594.752869 797.542786,594.752869 801.728699,594.752869 
	C802.773987,588.634644 799.863708,584.386963 795.723206,580.983032 
	C788.281860,574.865417 779.439758,574.848206 770.510132,576.076538 
	C763.420715,577.051758 755.934387,583.783875 755.033752,589.672485 
	C753.492065,599.752136 756.019592,605.404846 765.027588,609.378357 
	C771.278076,612.135559 778.244202,613.313171 784.390076,616.245422 
	C787.166992,617.570435 790.057617,621.251404 790.494324,624.217285 
	C791.017334,627.769287 787.901978,630.531128 783.903809,631.619751 
	C775.573303,633.888123 768.788330,630.582581 765.273987,622.209290 
	C761.002075,622.209290 756.708374,622.209290 750.793945,622.209290 
	C753.683228,627.364807 756.105469,631.687073 759.065613,636.516174 
M829.222717,613.900635 
	C831.288086,613.600403 833.350769,613.065369 835.419373,613.041138 
	C843.842407,612.942383 852.267212,613.000000 860.690186,613.000000 
	C860.690186,608.979858 860.690186,605.729004 860.690186,601.833252 
	C850.016785,601.833252 839.639099,601.833252 829.340088,601.833252 
	C829.340088,596.589478 829.340088,592.007385 829.340088,586.779785 
	C840.376404,586.779785 851.087524,586.779785 861.634033,586.779785 
	C861.634033,582.864868 861.634033,579.616028 861.634033,576.287231 
	C846.690552,576.287231 832.114197,576.287231 817.380615,576.287231 
	C817.380615,597.931824 817.380615,619.289185 817.380615,640.983826 
	C831.727173,640.983826 845.696289,641.048218 859.661987,640.861328 
	C860.777100,640.846436 862.512817,639.275696 862.837891,638.113953 
	C863.519653,635.677307 863.453796,633.031555 863.752991,629.854736 
	C852.134155,629.854736 840.736206,629.854736 829.052063,629.854736 
	C829.052063,624.445679 829.052063,619.638977 829.222717,613.900635 
M340.098358,626.355591 
	C333.511627,635.312988 319.295380,632.620911 316.642242,623.082153 
	C315.772614,619.955627 315.132050,616.662048 315.073303,613.432312 
	C314.879578,602.780457 315.010681,592.122864 314.989227,581.467468 
	C314.985687,579.715759 314.842010,577.964233 314.769562,576.356018 
	C310.223022,576.356018 306.306183,576.356018 302.022339,576.356018 
	C302.022339,590.498840 301.596832,604.306885 302.178680,618.072327 
	C302.539368,626.605347 305.256927,634.539246 313.647003,639.162292 
	C319.950623,642.635803 326.723511,642.010071 333.451324,641.988098 
	C344.617584,641.951660 353.693542,634.508484 354.875000,623.482483 
	C355.824463,614.621704 355.761719,605.644470 355.968872,596.714722 
	C356.125732,589.953125 356.000000,583.184937 356.000000,576.440430 
	C351.288116,576.440430 347.255768,576.440430 342.999695,576.440430 
	C342.999695,589.359253 343.181183,601.843323 342.891357,614.316467 
	C342.802124,618.158081 341.426117,621.969910 340.098358,626.355591 
M482.001770,583.483704 
	C475.421509,602.487061 468.841248,621.490417 462.199615,640.671021 
	C477.591614,640.992737 474.036652,643.505493 479.030029,630.303467 
	C479.262268,629.689514 479.362457,628.910339 479.800323,628.510803 
	C481.167206,627.263611 482.600861,625.276611 484.126770,625.163025 
	C489.588776,624.756165 495.112396,624.796814 500.583405,625.138245 
	C502.080627,625.231689 504.161011,626.652649 504.788666,628.011658 
	C506.688538,632.125305 508.006927,636.507507 509.472626,640.565674 
	C514.088684,640.565674 518.443665,640.565674 523.046265,640.565674 
	C522.841736,639.466553 522.808838,638.805237 522.594666,638.209045 
	C516.729065,621.880005 510.739563,605.594543 504.995911,589.222778 
	C500.039917,575.096130 500.162048,575.052795 485.060364,576.145874 
	C484.903625,576.157227 484.754242,576.270935 484.502838,576.379395 
	C483.726471,578.433167 482.923492,580.557312 482.001770,583.483704 
M636.069641,575.557678 
	C633.172363,575.708496 630.214661,575.540222 627.389893,576.074524 
	C620.852905,577.311096 615.234558,580.064148 610.724243,585.389282 
	C606.226440,590.699524 604.355225,596.916077 603.443359,603.356384 
	C601.922852,614.096008 603.586243,624.358704 610.653198,633.144287 
	C619.113159,643.661621 636.916809,644.135498 647.126221,639.380676 
	C654.806396,635.803772 659.230774,629.792358 660.372803,621.000000 
	C657.508423,621.000000 655.006042,621.168823 652.536072,620.957886 
	C649.345337,620.685303 647.217285,621.244202 645.696533,624.675415 
	C641.285828,634.626953 626.318970,633.586731 620.916931,624.923706 
	C616.108582,617.212769 616.478333,609.064453 617.714783,600.645813 
	C618.631592,594.403015 621.940979,589.809448 627.522217,587.325745 
	C635.935974,583.581421 642.958801,587.049500 647.944519,596.761230 
	C652.081299,596.761230 656.176941,596.761230 660.280579,596.761230 
	C659.591370,584.946045 649.967712,575.814575 636.069641,575.557678 
M41.831600,601.520447 
	C43.079906,598.337402 43.789326,594.784119 45.675171,592.039062 
	C51.923244,582.944397 66.127525,584.252991 70.991974,594.071899 
	C71.553520,595.205322 72.718300,596.741516 73.716660,596.831299 
	C77.394768,597.161987 81.120537,596.962646 84.828377,596.962646 
	C85.163116,596.484009 85.497864,596.005371 85.832611,595.526794 
	C83.423843,591.386780 81.621643,586.698975 78.480156,583.220825 
	C71.919006,575.956360 63.167961,574.971008 53.778011,575.892029 
	C43.269817,576.922668 36.008274,582.146301 31.327185,591.313171 
	C26.721539,600.332397 26.141047,609.959351 28.406759,619.569641 
	C30.325174,627.706848 34.154144,634.901855 42.138557,639.063782 
	C49.102463,642.693726 56.625717,642.664612 63.934505,641.826965 
	C74.573746,640.607666 83.492218,632.638794 84.756165,621.000244 
	C83.091637,621.000244 81.481773,621.065796 79.878899,620.987732 
	C75.363800,620.767883 71.977074,621.097412 68.998909,626.042542 
	C63.840603,634.607727 51.449368,633.465332 45.701511,625.424927 
	C40.607506,618.299255 40.470963,610.400024 41.831600,601.520447 
M1082.473755,581.980713 
	C1075.372559,575.939148 1067.131958,574.875977 1058.171875,575.930847 
	C1048.566284,577.061646 1041.611328,581.757385 1036.975952,590.112671 
	C1031.955933,599.161377 1031.503906,609.005615 1033.257568,618.749451 
	C1034.434937,625.291077 1037.290527,631.401978 1042.830933,636.049438 
	C1050.865845,642.789490 1060.324097,642.971130 1069.592285,641.736206 
	C1080.819946,640.240234 1088.937378,631.439514 1089.652832,621.000305 
	C1088.148315,621.000305 1086.670288,621.045837 1085.195923,620.991882 
	C1080.556519,620.822083 1076.939697,620.843994 1073.839722,626.165466 
	C1068.920654,634.609558 1056.216431,633.653503 1050.637939,625.229248 
	C1044.951904,616.642822 1044.603394,607.317383 1047.709961,597.858582 
	C1049.838745,591.377197 1053.999146,586.533813 1061.390503,586.058655 
	C1068.453247,585.604675 1073.860229,588.132812 1076.250732,595.410217 
	C1076.478516,596.103821 1077.753540,596.850525 1078.571289,596.885071 
	C1082.300659,597.042480 1086.040527,596.954163 1089.776611,596.954163 
	C1090.158569,596.486633 1090.540649,596.019104 1090.922729,595.551575 
	C1088.278931,591.197510 1085.635132,586.843506 1082.473755,581.980713 
M988.114990,595.690369 
	C990.485840,589.331421 992.856689,582.972412 995.282166,576.466919 
	C982.832764,574.989685 982.834473,574.990356 978.730957,585.555359 
	C978.137756,587.082581 977.449097,588.576050 976.921326,590.124939 
	C972.789246,602.251709 968.685791,614.388245 964.283997,627.375610 
	C963.604187,625.648560 963.220520,624.796570 962.928589,623.914062 
	C958.042908,609.146423 953.219177,594.357727 948.209961,579.632080 
	C947.732788,578.229248 946.214294,576.325867 945.002380,576.185791 
	C941.152893,575.741150 937.219666,576.021301 933.009949,576.021301 
	C939.529419,594.470764 945.881287,612.174805 952.031311,629.948608 
	C955.888123,641.095093 955.752075,641.053711 967.598755,641.059814 
	C970.666199,641.061401 972.093750,640.242493 973.183777,637.086670 
	C977.887817,623.467041 983.023315,609.996338 988.114990,595.690369 
M708.094238,606.621094 
	C713.831909,596.674561 719.569519,586.728027 725.757996,576.000000 
	C722.010254,576.000000 719.651611,576.262207 717.374023,575.943970 
	C712.984009,575.330444 710.712830,576.990051 708.810303,581.114014 
	C705.059143,589.245178 700.499023,597.003052 695.962036,605.498474 
	C695.089417,603.853699 694.496155,602.744263 693.910767,601.630676 
	C689.932190,594.062561 686.019104,586.458740 681.913513,578.960205 
	C681.245178,577.739563 679.791016,576.250916 678.590881,576.146973 
	C674.539185,575.796204 670.438354,576.013367 665.322083,576.013367 
	C670.946167,585.837280 675.992371,594.788330 681.173462,603.660645 
	C685.748047,611.494507 690.713440,619.070312 689.101685,628.946106 
	C688.478577,632.764160 689.000000,636.769043 689.000000,640.685791 
	C693.695496,640.685791 697.611267,640.685791 702.000000,640.685791 
	C702.000000,635.259644 702.414124,630.095154 701.899292,625.025024 
	C701.192505,618.064209 704.122925,612.624756 708.094238,606.621094 
M413.002960,579.643921 
	C413.002960,581.921997 413.002960,584.200073 413.002960,587.121826 
	C419.598236,587.121826 425.644745,587.121826 432.118927,587.121826 
	C432.118927,605.339050 432.118927,622.907776 432.118927,640.609985 
	C436.613007,640.609985 440.641479,640.609985 445.124512,640.609985 
	C445.124512,622.656982 445.124512,605.088623 445.124512,586.880371 
	C451.946045,586.880371 458.325928,586.880371 464.689514,586.880371 
	C464.689514,582.976807 464.689514,579.726440 464.689514,576.019897 
	C448.115723,576.019897 431.847260,575.978699 415.580688,576.134644 
	C414.716553,576.142944 413.868317,577.816040 413.002960,579.643921 
M1322.988281,638.212646 
	C1322.988281,621.299683 1322.988281,604.386658 1322.988281,586.832825 
	C1329.996826,586.832825 1336.380127,586.832825 1342.665283,586.832825 
	C1342.665283,582.928894 1342.665283,579.677124 1342.665283,576.407837 
	C1325.307617,576.407837 1308.287598,576.407837 1291.334839,576.407837 
	C1291.334839,580.071350 1291.334839,583.323242 1291.334839,587.212830 
	C1297.697388,587.212830 1303.740723,587.212830 1310.209229,587.212830 
	C1310.209229,605.431946 1310.209229,623.000183 1310.209229,640.999939 
	C1312.785156,640.999939 1314.952637,641.239502 1317.039185,640.931396 
	C1319.052612,640.634094 1320.982666,639.771545 1322.988281,638.212646 
M373.000000,586.535339 
	C373.000000,604.612427 373.000000,622.689514 373.000000,640.830566 
	C388.006866,640.830566 402.145691,640.830566 416.997314,640.830566 
	C417.388794,637.320557 417.770203,633.900818 418.216187,629.901978 
	C407.032532,629.901978 396.774780,629.901978 385.866760,629.901978 
	C385.866760,611.714233 385.866760,594.002136 385.866760,576.330322 
	C381.277374,576.330322 377.358398,576.330322 373.000000,576.330322 
	C373.000000,579.620178 373.000000,582.585510 373.000000,586.535339 
M1256.560547,576.000122 
	C1254.812744,576.000122 1253.064819,576.000122 1251.274658,576.000122 
	C1251.274658,598.006042 1251.274658,619.221252 1251.274658,640.704346 
	C1265.920044,640.704346 1280.290527,640.704346 1294.899658,640.704346 
	C1295.329224,637.126709 1295.727051,633.813293 1296.211792,629.775879 
	C1284.962402,629.775879 1274.594238,629.775879 1263.810791,629.775879 
	C1263.810791,611.584473 1263.810791,594.024536 1263.810791,576.000000 
	C1261.414185,576.000000 1259.457153,576.000000 1256.560547,576.000122 
M1017.948853,639.165833 
	C1017.948853,618.252563 1017.948853,597.339233 1017.948853,576.441895 
	C1013.285034,576.441895 1009.252563,576.441895 1005.346985,576.441895 
	C1005.346985,598.121155 1005.346985,619.356873 1005.346985,641.379028 
	C1009.764282,640.922546 1013.773132,640.508240 1017.948853,639.165833 
z"/>
<path fill="#747474" opacity="1.000000" stroke="none" 
	d="
M485.000000,19.000000 
	C509.331146,19.000051 533.162598,18.944551 556.992981,19.082144 
	C559.502625,19.096636 562.224243,19.810686 564.479065,20.937477 
	C599.853149,38.614769 635.186340,56.374172 670.487793,74.196289 
	C698.582520,88.380035 726.605530,102.705627 754.689392,116.910988 
	C783.210083,131.337326 811.782166,145.662003 840.302368,160.089325 
	C868.385986,174.295853 896.441650,188.557785 924.492676,202.828583 
	C944.596741,213.056396 964.673035,223.338913 985.424316,233.935349 
	C922.182251,278.617676 859.236572,323.090637 795.694763,367.984772 
	C795.290833,366.169434 795.053528,365.576385 795.041260,364.978760 
	C794.680359,347.370453 794.395447,329.760468 793.976746,312.153625 
	C793.775818,303.707489 793.479858,295.255859 792.845703,286.835419 
	C792.738953,285.417938 790.954895,283.617798 789.498230,282.888092 
	C770.794495,273.518616 752.000977,264.328766 733.246704,255.059921 
	C699.126831,238.197021 665.025940,221.295914 630.902100,204.441025 
	C606.235901,192.257507 581.538696,180.136642 556.867676,167.962738 
	C530.866577,155.132492 504.889008,142.254288 478.884613,129.430557 
	C453.472198,116.898735 428.027496,104.432343 402.618011,91.894531 
	C377.354950,79.428978 352.121216,66.903969 326.860779,54.433071 
	C325.547028,53.784466 324.097565,53.414265 322.721466,52.887787 
	C314.140381,49.604748 314.185303,49.641720 308.357178,56.124172 
	C301.609070,63.629910 294.891907,71.169327 287.947784,78.491631 
	C277.884216,89.103302 267.573639,99.480278 257.470337,110.054756 
	C245.780746,122.289490 234.197815,134.626160 222.575775,146.925369 
	C211.296951,158.861374 199.981903,170.763641 188.770081,182.762299 
	C181.765427,190.258560 174.892792,197.879166 168.024734,205.501495 
	C165.934311,207.821518 163.795761,209.227692 160.351990,209.087006 
	C146.918243,208.538208 133.466827,208.433868 120.029724,207.949463 
	C113.646172,207.719345 107.280052,207.005859 100.300232,206.464371 
	C101.239540,205.048965 101.870926,203.746613 102.813751,202.734344 
	C108.580185,196.543198 114.375534,190.377747 120.240089,184.279526 
	C130.262405,173.857910 140.392548,163.539734 150.386292,153.090958 
	C162.773239,140.139999 175.078552,127.110863 187.398361,114.095848 
	C198.687531,102.169647 209.939301,90.208031 221.225479,78.278999 
	C233.313049,65.502960 245.427017,52.751896 257.518463,39.979523 
	C262.991547,34.198257 268.550323,28.491932 273.846375,22.552032 
	C276.270691,19.833002 278.881378,18.914425 282.516083,18.920298 
	C349.843903,19.029097 417.171997,19.000023 485.000000,19.000000 
z"/>
<path fill="#747474" opacity="1.000000" stroke="none" 
	d="
M1656.000000,642.000000 
	C1637.333862,642.000000 1619.165283,642.152649 1601.003418,641.875793 
	C1597.207275,641.817932 1593.104736,640.843750 1589.702637,639.161133 
	C1548.035034,618.552979 1506.493042,597.691284 1464.875854,576.980713 
	C1418.550293,553.927124 1372.182861,530.957397 1325.830200,507.958405 
	C1280.068481,485.252655 1234.303101,462.554474 1188.537964,439.855774 
	C1155.028442,423.235657 1121.493652,406.666382 1088.041870,389.930969 
	C1084.701538,388.259857 1082.679321,388.330170 1079.385010,390.659119 
	C1061.963257,402.975037 1044.186401,414.788666 1026.542969,426.791473 
	C1025.186890,427.713989 1023.901367,428.741699 1022.596985,429.738617 
	C1015.723145,434.992432 1008.339417,437.293243 999.324768,437.211975 
	C949.996704,436.767151 900.662659,437.000000 851.330627,437.000000 
	C849.546021,437.000000 847.761414,437.000000 845.976807,437.000000 
	C845.858948,436.679413 845.741089,436.358856 845.623230,436.038269 
	C852.983704,431.052338 860.303894,426.005615 867.711426,421.090485 
	C911.892212,391.775208 956.102295,362.503845 1000.284119,333.190063 
	C1027.372070,315.217682 1054.443848,297.220795 1081.470581,279.156586 
	C1084.065552,277.422272 1086.095459,277.469971 1088.905640,278.890991 
	C1135.376953,302.390137 1181.933960,325.720093 1228.434204,349.162109 
	C1263.163208,366.669891 1297.821777,384.317047 1332.542603,401.841064 
	C1368.436157,419.957062 1404.382935,437.967163 1440.276489,456.082825 
	C1475.733398,473.977966 1511.135498,491.981750 1546.593872,509.874054 
	C1582.488525,527.986389 1618.440552,545.984741 1654.334473,564.098755 
	C1689.791870,581.992615 1725.216797,599.951294 1760.637939,617.916992 
	C1774.883057,625.142212 1789.081177,632.459900 1803.296143,639.744507 
	C1804.126587,640.170044 1804.915161,640.676819 1805.593262,642.000000 
	C1755.895508,642.000000 1706.197754,642.000000 1656.000000,642.000000 
z"/>
<path fill="#747474" opacity="1.000000" stroke="none" 
	d="
M1214.001587,258.000275 
	C1193.749146,248.125992 1173.861084,238.346268 1153.259766,228.215851 
	C1168.293701,218.153229 1182.587524,208.623047 1196.840942,199.032532 
	C1206.101562,192.801422 1215.376953,186.587204 1224.492798,180.148743 
	C1227.906616,177.737595 1230.711060,177.816498 1234.443481,179.693893 
	C1286.421021,205.838257 1338.453491,231.874268 1390.530762,257.819885 
	C1462.360229,293.606384 1534.246704,329.278473 1606.094482,365.028137 
	C1672.927124,398.282379 1739.735962,431.584656 1806.564941,464.846283 
	C1872.949951,497.886963 1939.341797,530.913391 2005.740112,563.927185 
	C2056.049316,588.941284 2106.373779,613.924622 2156.688232,638.928101 
	C2158.086670,639.623108 2159.448975,640.391357 2160.581787,642.000000 
	C2158.992432,642.000000 2157.403076,642.000000 2155.813721,642.000000 
	C2100.990234,642.000000 2046.166626,642.026794 1991.343262,641.918518 
	C1988.671387,641.913269 1985.769653,641.195312 1983.367188,640.012329 
	C1959.560913,628.289856 1935.849243,616.374878 1912.087769,604.560913 
	C1863.694458,580.500122 1815.290649,556.460815 1766.884155,532.426453 
	C1719.954224,509.125153 1673.011841,485.848663 1626.081909,462.547424 
	C1577.675049,438.512939 1529.280273,414.454529 1480.873535,390.419983 
	C1433.943481,367.118652 1387.001465,343.841187 1340.071045,320.540527 
	C1298.164917,299.734314 1256.267212,278.910767 1214.001587,258.000275 
z"/>
<path fill="#747474" opacity="1.000000" stroke="none" 
	d="
M888.000000,19.000000 
	C904.252197,16.987339 918.095886,21.786118 931.927734,29.182512 
	C957.499939,42.856922 983.705811,55.348270 1009.674805,68.278152 
	C1049.644531,88.179016 1089.637207,108.033897 1129.619507,127.909508 
	C1130.621826,128.407730 1131.617065,128.919907 1133.117310,129.679657 
	C1127.389771,133.859879 1122.026611,137.892731 1116.542969,141.754456 
	C1098.968628,154.130585 1081.254761,166.312378 1063.843872,178.913223 
	C1061.027710,180.951324 1059.147705,181.135376 1056.328857,179.737488 
	C1031.977783,167.661530 1007.567749,155.704330 983.219238,143.623199 
	C959.299805,131.755020 935.447998,119.750671 911.537659,107.864159 
	C863.878662,84.171478 816.204651,60.508877 768.525330,36.857185 
	C758.498901,31.883497 748.420227,27.015099 738.372192,22.084829 
	C737.123718,21.472252 735.915771,20.777220 734.905701,19.000000 
	C785.770508,19.000000 836.635254,19.000000 888.000000,19.000000 
z"/>
<path fill="#747474" opacity="1.000000" stroke="none" 
	d="
M172.000000,622.998718 
	C172.000000,607.218567 172.000000,591.937988 172.000000,576.032837 
	C177.036392,576.032837 181.661530,575.774231 186.223969,576.195312 
	C187.539703,576.316711 189.015701,578.194580 189.840149,579.605103 
	C197.850250,593.309265 205.737381,607.085266 214.709747,620.751343 
	C214.709747,606.017822 214.709747,591.284241 214.709747,576.284912 
	C219.114258,576.284912 222.697037,576.284912 226.641388,576.284912 
	C226.641388,597.734436 226.641388,619.087646 226.641388,640.986450 
	C222.013077,640.986450 217.548233,641.190674 213.124237,640.855652 
	C211.879593,640.761414 210.350922,639.319946 209.637695,638.096863 
	C202.694946,626.190857 195.902939,614.197083 189.054550,602.235962 
	C187.786377,600.020996 186.458344,597.840271 184.167084,595.866882 
	C184.167084,610.689880 184.167084,625.512878 184.167084,640.662476 
	C179.993210,640.662476 176.407562,640.662476 172.000000,640.662476 
	C172.000000,634.998230 172.000000,629.248291 172.000000,622.998718 
z"/>
<path fill="#747474" opacity="1.000000" stroke="none" 
	d="
M534.007324,579.261169 
	C534.057922,578.288818 533.913696,577.625793 534.179626,577.322571 
	C536.459412,574.723511 549.430359,575.544556 551.205750,578.552734 
	C558.541138,590.982239 565.738708,603.493042 572.998718,615.967102 
	C573.959351,617.617737 574.987915,619.228821 576.931030,620.622375 
	C576.931030,605.957642 576.931030,591.292969 576.931030,576.319336 
	C581.043823,576.319336 584.628113,576.319336 588.608032,576.319336 
	C588.608032,597.662537 588.608032,619.015198 588.608032,640.987366 
	C584.096008,640.987366 579.625183,641.284485 575.234375,640.822021 
	C573.750854,640.665710 572.020386,638.841858 571.166504,637.344543 
	C563.280273,623.515625 555.563660,609.589966 547.775146,595.705139 
	C547.649170,595.480591 547.239258,595.415405 546.323669,594.954773 
	C546.323669,610.239746 546.323669,625.220398 546.323669,640.596436 
	C542.000916,640.596436 538.304382,640.596436 534.002747,640.596436 
	C534.002747,620.246155 534.002747,599.991760 534.007324,579.261169 
z"/>
<path fill="#747474" opacity="1.000000" stroke="none" 
	d="
M1389.573242,639.956909 
	C1377.626221,639.990967 1366.093506,639.990967 1354.276611,639.990967 
	C1354.276611,619.203369 1354.276611,597.966980 1354.276611,576.507935 
	C1363.604370,576.507935 1372.836792,576.259460 1382.048584,576.589966 
	C1388.883789,576.835205 1395.161621,578.900696 1400.397339,583.817322 
	C1409.224365,592.106567 1411.116089,602.655334 1409.781982,613.789917 
	C1408.313232,626.049316 1401.803223,635.164490 1389.573242,639.956909 
M1367.224487,587.888123 
	C1367.224487,602.139832 1367.224487,616.391541 1367.224487,630.986877 
	C1371.040527,630.986877 1374.383911,631.285461 1377.655273,630.926758 
	C1385.209961,630.098511 1391.777954,627.253052 1394.637573,619.584961 
	C1396.891235,613.541687 1397.199951,607.200928 1395.416260,600.871582 
	C1393.420654,593.789856 1389.424683,588.734497 1381.667847,587.912659 
	C1377.102783,587.428955 1372.485596,587.436951 1367.224487,587.888123 
z"/>
<path fill="#747474" opacity="1.000000" stroke="none" 
	d="
M905.577698,616.017212 
	C899.976624,615.524719 894.787354,615.086304 889.060425,614.602417 
	C889.060425,623.810303 889.060425,632.064392 889.060425,640.654968 
	C884.670654,640.654968 880.752075,640.654968 876.414673,640.654968 
	C876.414673,619.368835 876.414673,598.006287 876.414673,575.463257 
	C888.188293,576.068848 899.922119,576.158447 911.519836,577.460876 
	C918.513000,578.246277 923.357666,583.077393 924.885986,590.233276 
	C926.569824,598.117188 923.876343,604.603516 917.216492,609.439026 
	C927.912109,617.898499 922.383179,630.044312 924.416443,640.519165 
	C924.194092,640.635986 924.052002,640.767761 923.898315,640.783264 
	C911.000366,642.082275 910.963013,642.081421 911.018860,629.010803 
	C911.040283,623.997253 911.543640,618.880493 905.577698,616.017212 
M902.053711,587.003540 
	C897.816650,587.003540 893.579590,587.003540 889.279175,587.003540 
	C889.279175,592.988586 889.279175,598.219299 889.279175,603.744690 
	C890.985535,603.839111 892.433411,603.977661 893.882202,603.987793 
	C897.363220,604.012085 900.948242,604.478760 904.290100,603.790283 
	C906.572327,603.320190 908.975708,601.589355 910.517944,599.746704 
	C914.132935,595.427673 911.094604,587.823242 902.053711,587.003540 
z"/>
<path fill="#747474" opacity="1.000000" stroke="none" 
	d="
M126.994110,575.039001 
	C130.626862,575.670715 133.914001,576.015442 137.004837,576.985657 
	C148.819870,580.694397 156.210709,591.114929 157.142807,603.445190 
	C157.658279,610.264221 156.941483,616.678650 155.078934,623.159668 
	C151.892792,634.246643 138.388977,642.058899 128.892853,642.228027 
	C116.465767,642.449463 106.228500,639.242004 99.862206,628.206482 
	C91.430534,613.590881 93.423409,589.338501 109.830139,579.992981 
	C114.750366,577.190369 120.946671,576.627991 126.994110,575.039001 
M142.151245,619.493408 
	C145.241913,611.911865 144.664185,604.236267 141.792664,596.896545 
	C139.188843,590.241089 133.669968,586.771118 126.553085,586.061157 
	C121.303513,585.537415 114.643509,589.718750 111.965698,595.193909 
	C108.081863,603.134888 107.737732,611.233154 110.832047,619.548401 
	C113.423431,626.512085 118.546761,630.867188 124.687752,630.998962 
	C134.332184,631.205872 138.777283,628.457703 142.151245,619.493408 
z"/>
<path fill="#747474" opacity="1.000000" stroke="none" 
	d="
M1103.007324,579.260193 
	C1103.848511,577.863403 1104.675537,576.151001 1105.522827,576.140930 
	C1119.472168,575.974731 1133.424072,576.022827 1147.685547,576.022827 
	C1147.685547,579.720459 1147.685547,582.972961 1147.685547,586.881348 
	C1137.322510,586.881348 1126.943237,586.881348 1116.289795,586.881348 
	C1116.289795,592.109924 1116.289795,596.692017 1116.289795,601.759644 
	C1126.287842,601.759644 1136.205811,601.759644 1146.559692,601.759644 
	C1146.559692,605.595886 1146.559692,608.959900 1146.559692,612.812378 
	C1136.663208,612.812378 1126.740234,612.812378 1116.412598,612.812378 
	C1116.412598,618.643005 1116.412598,624.009155 1116.412598,629.983276 
	C1127.548950,629.983276 1138.618652,629.983276 1150.001099,629.983276 
	C1149.581787,633.354309 1149.453979,636.151733 1148.780762,638.811157 
	C1148.552612,639.712830 1146.953125,640.877197 1145.970459,640.886475 
	C1131.855347,641.020935 1117.738525,640.978394 1103.002686,640.978394 
	C1103.002686,620.257446 1103.002686,599.997070 1103.007324,579.260193 
z"/>
<path fill="#747474" opacity="1.000000" stroke="none" 
	d="
M1162.002075,591.364319 
	C1162.798462,584.563904 1166.584595,580.314331 1172.213013,578.026428 
	C1182.264038,573.940918 1192.292480,574.243774 1201.734741,579.974670 
	C1206.957397,583.144409 1208.972290,588.179016 1209.035034,594.588440 
	C1204.727295,594.588440 1200.676514,594.588440 1196.567993,594.588440 
	C1193.485962,586.890198 1189.793457,584.421265 1181.746094,586.250916 
	C1179.222656,586.824707 1176.368896,589.602966 1175.320435,592.074036 
	C1174.024292,595.128967 1176.488892,597.702881 1179.580688,598.800293 
	C1185.577881,600.929199 1191.563477,603.160522 1197.696533,604.823425 
	C1213.969360,609.235718 1215.100708,629.525024 1203.851318,637.522644 
	C1201.397827,639.266785 1198.334595,640.587219 1195.376953,641.109253 
	C1185.349243,642.878906 1175.214355,643.553589 1166.588501,636.726013 
	C1162.220947,633.268860 1159.676392,628.397705 1159.799072,622.272095 
	C1163.921875,622.272095 1168.152100,622.272095 1172.374634,622.272095 
	C1175.438232,629.917786 1181.470581,633.350952 1189.573120,631.927856 
	C1193.768066,631.191101 1197.467529,629.025940 1197.770264,624.616516 
	C1198.073608,620.198181 1195.314087,617.138184 1190.752319,615.846863 
	C1185.722900,614.423340 1180.775757,612.700989 1175.818359,611.032227 
	C1165.033569,607.401855 1161.998291,603.145386 1162.002075,591.364319 
z"/>
<path fill="#747474" opacity="1.000000" stroke="none" 
	d="
M270.012878,575.996948 
	C280.279114,576.179443 290.918671,586.653259 288.396881,594.772095 
	C284.519440,594.772095 280.567841,594.772095 276.642975,594.772095 
	C273.443878,586.788330 269.168030,584.211426 260.745514,586.229309 
	C258.550415,586.755188 256.193146,589.349121 255.219315,591.567749 
	C253.848145,594.691528 255.851730,597.486450 258.791473,598.838806 
	C261.735840,600.193298 264.992065,600.854553 268.070404,601.936768 
	C272.688995,603.560425 277.298248,605.217590 281.863342,606.984924 
	C288.273834,609.466736 290.364685,614.993408 290.916626,621.098145 
	C291.537079,627.960327 289.228180,634.250488 283.238922,637.755249 
	C272.962250,643.768738 261.915955,643.679382 250.939651,639.421143 
	C243.356323,636.479248 240.467148,630.091370 238.943756,622.023376 
	C242.883865,622.023376 246.513596,621.768799 250.071808,622.161743 
	C251.313644,622.298950 252.814209,623.812439 253.454498,625.073975 
	C257.597961,633.237793 267.675995,633.354187 273.791138,630.516235 
	C278.310913,628.418701 278.671936,619.677124 273.477936,617.310059 
	C269.492279,615.493469 265.134216,614.512573 261.012146,612.971680 
	C256.746643,611.377197 252.074036,610.249084 248.455338,607.682312 
	C241.867493,603.009399 240.290741,595.789734 242.568970,587.854309 
	C244.820053,580.013306 251.030075,577.383606 257.989746,576.135986 
	C261.742310,575.463379 265.712067,576.002136 270.012878,575.996948 
z"/>
<path fill="#747474" opacity="1.000000" stroke="none" 
	d="
M758.796692,636.262756 
	C756.105469,631.687073 753.683228,627.364807 750.793945,622.209290 
	C756.708374,622.209290 761.002075,622.209290 765.273987,622.209290 
	C768.788330,630.582581 775.573303,633.888123 783.903809,631.619751 
	C787.901978,630.531128 791.017334,627.769287 790.494324,624.217285 
	C790.057617,621.251404 787.166992,617.570435 784.390076,616.245422 
	C778.244202,613.313171 771.278076,612.135559 765.027588,609.378357 
	C756.019592,605.404846 753.492065,599.752136 755.033752,589.672485 
	C755.934387,583.783875 763.420715,577.051758 770.510132,576.076538 
	C779.439758,574.848206 788.281860,574.865417 795.723206,580.983032 
	C799.863708,584.386963 802.773987,588.634644 801.728699,594.752869 
	C797.542786,594.752869 793.591797,594.752869 789.655823,594.752869 
	C786.458679,586.875671 782.803528,584.437012 774.750732,586.243835 
	C772.217224,586.812317 769.069885,589.565796 768.408142,591.934998 
	C767.915222,593.699768 770.452881,597.585449 772.550415,598.551147 
	C778.003662,601.061951 783.980774,602.417236 789.708069,604.354309 
	C801.912537,608.482239 806.154846,616.342590 803.008606,628.816284 
	C801.337341,635.442200 793.882751,641.276855 785.063416,641.882324 
	C776.003174,642.504395 766.798401,642.789673 758.796692,636.262756 
z"/>
<path fill="#747474" opacity="1.000000" stroke="none" 
	d="
M829.137390,614.366455 
	C829.052063,619.638977 829.052063,624.445679 829.052063,629.854736 
	C840.736206,629.854736 852.134155,629.854736 863.752991,629.854736 
	C863.453796,633.031555 863.519653,635.677307 862.837891,638.113953 
	C862.512817,639.275696 860.777100,640.846436 859.661987,640.861328 
	C845.696289,641.048218 831.727173,640.983826 817.380615,640.983826 
	C817.380615,619.289185 817.380615,597.931824 817.380615,576.287231 
	C832.114197,576.287231 846.690552,576.287231 861.634033,576.287231 
	C861.634033,579.616028 861.634033,582.864868 861.634033,586.779785 
	C851.087524,586.779785 840.376404,586.779785 829.340088,586.779785 
	C829.340088,592.007385 829.340088,596.589478 829.340088,601.833252 
	C839.639099,601.833252 850.016785,601.833252 860.690186,601.833252 
	C860.690186,605.729004 860.690186,608.979858 860.690186,613.000000 
	C852.267212,613.000000 843.842407,612.942383 835.419373,613.041138 
	C833.350769,613.065369 831.288086,613.600403 829.137390,614.366455 
z"/>
<path fill="#747474" opacity="1.000000" stroke="none" 
	d="
M340.368835,626.075439 
	C341.426117,621.969910 342.802124,618.158081 342.891357,614.316467 
	C343.181183,601.843323 342.999695,589.359253 342.999695,576.440430 
	C347.255768,576.440430 351.288116,576.440430 356.000000,576.440430 
	C356.000000,583.184937 356.125732,589.953125 355.968872,596.714722 
	C355.761719,605.644470 355.824463,614.621704 354.875000,623.482483 
	C353.693542,634.508484 344.617584,641.951660 333.451324,641.988098 
	C326.723511,642.010071 319.950623,642.635803 313.647003,639.162292 
	C305.256927,634.539246 302.539368,626.605347 302.178680,618.072327 
	C301.596832,604.306885 302.022339,590.498840 302.022339,576.356018 
	C306.306183,576.356018 310.223022,576.356018 314.769562,576.356018 
	C314.842010,577.964233 314.985687,579.715759 314.989227,581.467468 
	C315.010681,592.122864 314.879578,602.780457 315.073303,613.432312 
	C315.132050,616.662048 315.772614,619.955627 316.642242,623.082153 
	C319.295380,632.620911 333.511627,635.312988 340.368835,626.075439 
z"/>
<path fill="#747474" opacity="1.000000" stroke="none" 
	d="
M482.061157,583.082642 
	C482.923492,580.557312 483.726471,578.433167 484.502838,576.379395 
	C484.754242,576.270935 484.903625,576.157227 485.060364,576.145874 
	C500.162048,575.052795 500.039917,575.096130 504.995911,589.222778 
	C510.739563,605.594543 516.729065,621.880005 522.594666,638.209045 
	C522.808838,638.805237 522.841736,639.466553 523.046265,640.565674 
	C518.443665,640.565674 514.088684,640.565674 509.472626,640.565674 
	C508.006927,636.507507 506.688538,632.125305 504.788666,628.011658 
	C504.161011,626.652649 502.080627,625.231689 500.583405,625.138245 
	C495.112396,624.796814 489.588776,624.756165 484.126770,625.163025 
	C482.600861,625.276611 481.167206,627.263611 479.800323,628.510803 
	C479.362457,628.910339 479.262268,629.689514 479.030029,630.303467 
	C474.036652,643.505493 477.591614,640.992737 462.199615,640.671021 
	C468.841248,621.490417 475.421509,602.487061 482.061157,583.082642 
M484.500641,612.047119 
	C485.072052,612.691895 485.625549,613.876282 486.217682,613.895935 
	C490.862885,614.050232 495.515533,613.981506 500.804993,613.981506 
	C497.868958,605.683899 495.097778,597.852295 491.865326,588.717041 
	C489.228424,597.254089 487.056915,604.284424 484.500641,612.047119 
z"/>
<path fill="#747474" opacity="1.000000" stroke="none" 
	d="
M636.470764,575.725830 
	C649.967712,575.814575 659.591370,584.946045 660.280579,596.761230 
	C656.176941,596.761230 652.081299,596.761230 647.944519,596.761230 
	C642.958801,587.049500 635.935974,583.581421 627.522217,587.325745 
	C621.940979,589.809448 618.631592,594.403015 617.714783,600.645813 
	C616.478333,609.064453 616.108582,617.212769 620.916931,624.923706 
	C626.318970,633.586731 641.285828,634.626953 645.696533,624.675415 
	C647.217285,621.244202 649.345337,620.685303 652.536072,620.957886 
	C655.006042,621.168823 657.508423,621.000000 660.372803,621.000000 
	C659.230774,629.792358 654.806396,635.803772 647.126221,639.380676 
	C636.916809,644.135498 619.113159,643.661621 610.653198,633.144287 
	C603.586243,624.358704 601.922852,614.096008 603.443359,603.356384 
	C604.355225,596.916077 606.226440,590.699524 610.724243,585.389282 
	C615.234558,580.064148 620.852905,577.311096 627.389893,576.074524 
	C630.214661,575.540222 633.172363,575.708496 636.470764,575.725830 
z"/>
<path fill="#747474" opacity="1.000000" stroke="none" 
	d="
M41.582924,601.878174 
	C40.470963,610.400024 40.607506,618.299255 45.701511,625.424927 
	C51.449368,633.465332 63.840603,634.607727 68.998909,626.042542 
	C71.977074,621.097412 75.363800,620.767883 79.878899,620.987732 
	C81.481773,621.065796 83.091637,621.000244 84.756165,621.000244 
	C83.492218,632.638794 74.573746,640.607666 63.934505,641.826965 
	C56.625717,642.664612 49.102463,642.693726 42.138557,639.063782 
	C34.154144,634.901855 30.325174,627.706848 28.406759,619.569641 
	C26.141047,609.959351 26.721539,600.332397 31.327185,591.313171 
	C36.008274,582.146301 43.269817,576.922668 53.778011,575.892029 
	C63.167961,574.971008 71.919006,575.956360 78.480156,583.220825 
	C81.621643,586.698975 83.423843,591.386780 85.832611,595.526794 
	C85.497864,596.005371 85.163116,596.484009 84.828377,596.962646 
	C81.120537,596.962646 77.394768,597.161987 73.716660,596.831299 
	C72.718300,596.741516 71.553520,595.205322 70.991974,594.071899 
	C66.127525,584.252991 51.923244,582.944397 45.675171,592.039062 
	C43.789326,594.784119 43.079906,598.337402 41.582924,601.878174 
z"/>
<path fill="#747474" opacity="1.000000" stroke="none" 
	d="
M1082.732544,582.235107 
	C1085.635132,586.843506 1088.278931,591.197510 1090.922729,595.551575 
	C1090.540649,596.019104 1090.158569,596.486633 1089.776611,596.954163 
	C1086.040527,596.954163 1082.300659,597.042480 1078.571289,596.885071 
	C1077.753540,596.850525 1076.478516,596.103821 1076.250732,595.410217 
	C1073.860229,588.132812 1068.453247,585.604675 1061.390503,586.058655 
	C1053.999146,586.533813 1049.838745,591.377197 1047.709961,597.858582 
	C1044.603394,607.317383 1044.951904,616.642822 1050.637939,625.229248 
	C1056.216431,633.653503 1068.920654,634.609558 1073.839722,626.165466 
	C1076.939697,620.843994 1080.556519,620.822083 1085.195923,620.991882 
	C1086.670288,621.045837 1088.148315,621.000305 1089.652832,621.000305 
	C1088.937378,631.439514 1080.819946,640.240234 1069.592285,641.736206 
	C1060.324097,642.971130 1050.865845,642.789490 1042.830933,636.049438 
	C1037.290527,631.401978 1034.434937,625.291077 1033.257568,618.749451 
	C1031.503906,609.005615 1031.955933,599.161377 1036.975952,590.112671 
	C1041.611328,581.757385 1048.566284,577.061646 1058.171875,575.930847 
	C1067.131958,574.875977 1075.372559,575.939148 1082.732544,582.235107 
z"/>
<path fill="#747474" opacity="1.000000" stroke="none" 
	d="
M988.058350,596.080933 
	C983.023315,609.996338 977.887817,623.467041 973.183777,637.086670 
	C972.093750,640.242493 970.666199,641.061401 967.598755,641.059814 
	C955.752075,641.053711 955.888123,641.095093 952.031311,629.948608 
	C945.881287,612.174805 939.529419,594.470764 933.009949,576.021301 
	C937.219666,576.021301 941.152893,575.741150 945.002380,576.185791 
	C946.214294,576.325867 947.732788,578.229248 948.209961,579.632080 
	C953.219177,594.357727 958.042908,609.146423 962.928589,623.914062 
	C963.220520,624.796570 963.604187,625.648560 964.283997,627.375610 
	C968.685791,614.388245 972.789246,602.251709 976.921326,590.124939 
	C977.449097,588.576050 978.137756,587.082581 978.730957,585.555359 
	C982.834473,574.990356 982.832764,574.989685 995.282166,576.466919 
	C992.856689,582.972412 990.485840,589.331421 988.058350,596.080933 
z"/>
<path fill="#747474" opacity="1.000000" stroke="none" 
	d="
M707.998901,606.979492 
	C704.122925,612.624756 701.192505,618.064209 701.899292,625.025024 
	C702.414124,630.095154 702.000000,635.259644 702.000000,640.685791 
	C697.611267,640.685791 693.695496,640.685791 689.000000,640.685791 
	C689.000000,636.769043 688.478577,632.764160 689.101685,628.946106 
	C690.713440,619.070312 685.748047,611.494507 681.173462,603.660645 
	C675.992371,594.788330 670.946167,585.837280 665.322083,576.013367 
	C670.438354,576.013367 674.539185,575.796204 678.590881,576.146973 
	C679.791016,576.250916 681.245178,577.739563 681.913513,578.960205 
	C686.019104,586.458740 689.932190,594.062561 693.910767,601.630676 
	C694.496155,602.744263 695.089417,603.853699 695.962036,605.498474 
	C700.499023,597.003052 705.059143,589.245178 708.810303,581.114014 
	C710.712830,576.990051 712.984009,575.330444 717.374023,575.943970 
	C719.651611,576.262207 722.010254,576.000000 725.757996,576.000000 
	C719.569519,586.728027 713.831909,596.674561 707.998901,606.979492 
z"/>
<path fill="#747474" opacity="1.000000" stroke="none" 
	d="
M413.007812,579.179016 
	C413.868317,577.816040 414.716553,576.142944 415.580688,576.134644 
	C431.847260,575.978699 448.115723,576.019897 464.689514,576.019897 
	C464.689514,579.726440 464.689514,582.976807 464.689514,586.880371 
	C458.325928,586.880371 451.946045,586.880371 445.124512,586.880371 
	C445.124512,605.088623 445.124512,622.656982 445.124512,640.609985 
	C440.641479,640.609985 436.613007,640.609985 432.118927,640.609985 
	C432.118927,622.907776 432.118927,605.339050 432.118927,587.121826 
	C425.644745,587.121826 419.598236,587.121826 413.002960,587.121826 
	C413.002960,584.200073 413.002960,581.921997 413.007812,579.179016 
z"/>
<path fill="#747474" opacity="1.000000" stroke="none" 
	d="
M1322.968750,638.684937 
	C1320.982666,639.771545 1319.052612,640.634094 1317.039185,640.931396 
	C1314.952637,641.239502 1312.785156,640.999939 1310.209229,640.999939 
	C1310.209229,623.000183 1310.209229,605.431946 1310.209229,587.212830 
	C1303.740723,587.212830 1297.697388,587.212830 1291.334839,587.212830 
	C1291.334839,583.323242 1291.334839,580.071350 1291.334839,576.407837 
	C1308.287598,576.407837 1325.307617,576.407837 1342.665283,576.407837 
	C1342.665283,579.677124 1342.665283,582.928894 1342.665283,586.832825 
	C1336.380127,586.832825 1329.996826,586.832825 1322.988281,586.832825 
	C1322.988281,604.386658 1322.988281,621.299683 1322.968750,638.684937 
z"/>
<path fill="#747474" opacity="1.000000" stroke="none" 
	d="
M373.000000,586.043091 
	C373.000000,582.585510 373.000000,579.620178 373.000000,576.330322 
	C377.358398,576.330322 381.277374,576.330322 385.866760,576.330322 
	C385.866760,594.002136 385.866760,611.714233 385.866760,629.901978 
	C396.774780,629.901978 407.032532,629.901978 418.216187,629.901978 
	C417.770203,633.900818 417.388794,637.320557 416.997314,640.830566 
	C402.145691,640.830566 388.006866,640.830566 373.000000,640.830566 
	C373.000000,622.689514 373.000000,604.612427 373.000000,586.043091 
z"/>
<path fill="#747474" opacity="1.000000" stroke="none" 
	d="
M1257.030273,576.000061 
	C1259.457153,576.000000 1261.414185,576.000000 1263.810791,576.000000 
	C1263.810791,594.024536 1263.810791,611.584473 1263.810791,629.775879 
	C1274.594238,629.775879 1284.962402,629.775879 1296.211792,629.775879 
	C1295.727051,633.813293 1295.329224,637.126709 1294.899658,640.704346 
	C1280.290527,640.704346 1265.920044,640.704346 1251.274658,640.704346 
	C1251.274658,619.221252 1251.274658,598.006042 1251.274658,576.000122 
	C1253.064819,576.000122 1254.812744,576.000122 1257.030273,576.000061 
z"/>
<path fill="#747474" opacity="1.000000" stroke="none" 
	d="
M1017.865417,639.629883 
	C1013.773132,640.508240 1009.764282,640.922546 1005.346985,641.379028 
	C1005.346985,619.356873 1005.346985,598.121155 1005.346985,576.441895 
	C1009.252563,576.441895 1013.285034,576.441895 1017.948853,576.441895 
	C1017.948853,597.339233 1017.948853,618.252563 1017.865417,639.629883 
z"/>
<path fill="#000000" opacity="1.000000" stroke="none" 
	d="
M1367.558105,587.555908 
	C1372.485596,587.436951 1377.102783,587.428955 1381.667847,587.912659 
	C1389.424683,588.734497 1393.420654,593.789856 1395.416260,600.871582 
	C1397.199951,607.200928 1396.891235,613.541687 1394.637573,619.584961 
	C1391.777954,627.253052 1385.209961,630.098511 1377.655273,630.926758 
	C1374.383911,631.285461 1371.040527,630.986877 1367.224487,630.986877 
	C1367.224487,616.391541 1367.224487,602.139832 1367.558105,587.555908 
z"/>
<path fill="#000000" opacity="1.000000" stroke="none" 
	d="
M902.496704,587.009155 
	C911.094604,587.823242 914.132935,595.427673 910.517944,599.746704 
	C908.975708,601.589355 906.572327,603.320190 904.290100,603.790283 
	C900.948242,604.478760 897.363220,604.012085 893.882202,603.987793 
	C892.433411,603.977661 890.985535,603.839111 889.279175,603.744690 
	C889.279175,598.219299 889.279175,592.988586 889.279175,587.003540 
	C893.579590,587.003540 897.816650,587.003540 902.496704,587.009155 
z"/>
<path fill="#000000" opacity="1.000000" stroke="none" 
	d="
M142.084229,619.889282 
	C138.777283,628.457703 134.332184,631.205872 124.687752,630.998962 
	C118.546761,630.867188 113.423431,626.512085 110.832047,619.548401 
	C107.737732,611.233154 108.081863,603.134888 111.965698,595.193909 
	C114.643509,589.718750 121.303513,585.537415 126.553085,586.061157 
	C133.669968,586.771118 139.188843,590.241089 141.792664,596.896545 
	C144.664185,604.236267 145.241913,611.911865 142.084229,619.889282 
z"/>
<path fill="#000000" opacity="1.000000" stroke="none" 
	d="
M484.692993,611.680969 
	C487.056915,604.284424 489.228424,597.254089 491.865326,588.717041 
	C495.097778,597.852295 497.868958,605.683899 500.804993,613.981506 
	C495.515533,613.981506 490.862885,614.050232 486.217682,613.895935 
	C485.625549,613.876282 485.072052,612.691895 484.692993,611.680969 
z"/>
</svg>